<?xml version="1.0" standalone="no"?><!DOCTYPE svg PUBLIC "-//W3C//DTD SVG 1.1//EN" "http://www.w3.org/Graphics/SVG/1.1/DTD/svg11.dtd"><svg t="1721610302006" class="icon" viewBox="0 0 1083 1024" version="1.1" xmlns="http://www.w3.org/2000/svg" p-id="12488" xmlns:xlink="http://www.w3.org/1999/xlink" width="270.75" height="256"><path d="M1073.046018 503.429452s0-1.650166-1.624382-1.650166c-27.794978-49.015078-53.991358-98.13329-80.161954-147.199935l35.994238-183.219959c3.274548-34.369857-1.650166-57.265906-14.748355-72.014261-14.696788-16.346954-37.618621-22.870265-67.089549-19.595718h-1.572814l-160.349693 29.470928c-54.042926-32.745475-106.358335-65.49095-160.349694-96.534692h-1.650165c-24.520431-13.123974-49.066645-16.398521-67.089549-8.173477-13.072406 6.549095-31.069526 21.245883-34.344073 58.890288l-17.945552 166.84722c-31.069526 27.794978-60.540453 55.61574-91.609979 83.436502l-44.167716 40.893169c-21.297451 19.621501-29.470928 39.217219-27.820762 58.890288 1.624382 21.245883 16.346954 40.893168 44.167716 58.890287l1.624382 1.624382c49.040861 24.520431 99.80924 49.092429 148.850101 73.638644 26.19638 57.214338 50.716811 114.506028 76.887407 173.370532 9.823643 27.820762 22.870265 45.792098 39.243003 52.366976 13.072406 4.873146 26.19638 4.873146 39.243003-1.624382 9.823643-4.924713 21.271667-13.072406 35.994238-27.769194l111.231481-121.055123c60.540453-4.924713 122.731073-11.473808 183.245742-16.398522 11.422241-1.650166 21.245883-4.924713 31.069526-8.19926 19.75042-9.823643 47.545399-34.318289 22.9734-94.884527zM330.832435 812.912869l-63.428243-44.786528c-6.239689-28.568493-13.691218-57.214338-19.905124-85.808616-3.712873-12.42781-11.21597-22.380372-19.879339-24.881404-6.213905-2.501032-17.404091-2.501032-31.09531 7.477313L134.3338 714.650659c-19.87934-1.237624-38.572623-2.475249-58.477746-2.475248l-28.594278-1.263408c-13.665435 0-23.617996 2.501032-28.594277 9.952561-6.213905 7.451529-7.451529 18.693283-4.976281 34.833967v1.237624c8.714938 24.907188 16.166467 49.788593 24.881405 74.669997a2345.194839 2345.194839 0 0 0-32.332934 83.307583c-6.213905 12.42781-7.451529 23.64378-4.976281 31.095309 2.526816 6.239689 7.477313 9.952562 13.691218 12.427811 4.976281 2.501032 12.42781 2.501032 21.142748 2.501032l77.093678-2.501032 67.1669 55.976714c4.976281 3.738657 8.714938 6.213905 12.42781 7.451529 9.952562 3.76444 27.356653 4.976281 39.784464-23.617996v-1.237624c7.477313-26.144813 14.928843-51.026217 22.406156-77.119462l74.644213-48.525185c11.190186-9.952562 17.429875-19.87934 17.429875-29.831901s-5.027849-19.930907-16.218035-28.620061zM249.845398 855.353067l-36.509916 23.721132c-3.661305 12.763-7.271043 24.932972-10.932348 37.670188v0.618813c-6.059202 14.000624-14.619437 13.381812-19.492582 11.551159a20.884909 20.884909 0 0 1-6.084986-3.661305l-32.822826-27.382436-37.74754 1.21184c-4.254333 0-7.915639 0-10.313536-1.21184-3.068277-1.21184-5.491958-2.990925-6.703798-6.059203-1.21184-3.661305-0.593028-9.127479 2.449465-15.238248 4.847362-13.356028 10.313536-27.382437 15.805493-40.764249-4.254333-12.195756-7.941422-24.288376-12.169972-36.484132v-0.618812c-1.237624-7.915639-0.618812-13.381812 2.423681-17.017334 2.449465-3.661305 7.296826-4.873146 14.000624-4.873146l14.000625 0.618813c9.720507 0 18.847986 0.593028 28.568493 1.186056l30.450714-24.288376c6.678014-4.873146 12.169972-4.873146 15.212465-3.661305 4.254333 1.21184 7.915639 6.084986 9.720507 12.144188 3.068277 14.000624 6.729582 28.001249 9.746291 42.001873l31.043742 21.916263c5.44039 4.254333 7.915639 9.127479 7.915638 14.000625s-3.094061 9.694723-8.560234 14.619436z" fill="#bfbfbf" p-id="12489"></path></svg>