<?xml version="1.0" standalone="no"?><!DOCTYPE svg PUBLIC "-//W3C//DTD SVG 1.1//EN" "http://www.w3.org/Graphics/SVG/1.1/DTD/svg11.dtd"><svg t="1721152141475" class="icon" viewBox="0 0 1024 1024" version="1.1" xmlns="http://www.w3.org/2000/svg" p-id="7469" xmlns:xlink="http://www.w3.org/1999/xlink" width="256" height="256"><path d="M672 832H352c-17.6 0-32-14.4-32-32s14.4-32 32-32h320c17.6 0 32 14.4 32 32s-14.4 32-32 32z" fill="#040000" p-id="7470"></path><path d="M848 960H176c-61.76 0-112-50.24-112-112V672c0-17.67 14.33-32 32-32h832c17.67 0 32 14.33 32 32v176c0 61.76-50.24 112-112 112zM128 704v144c0 26.47 21.53 48 48 48h672c26.47 0 48-21.53 48-48V704H128z" p-id="7471"></path><path d="M537 576H313c-17.6 0-32-14.4-32-32s14.4-32 32-32h224c17.6 0 32 14.4 32 32s-14.4 32-32 32zM537 448H313c-17.6 0-32-14.4-32-32s14.4-32 32-32h224c17.6 0 32 14.4 32 32s-14.4 32-32 32z" fill="#040000" p-id="7472"></path><path d="M665 704H185c-17.67 0-32-14.33-32-32V286c0-7.27 2.47-14.32 7.01-19.99l152-190A32.005 32.005 0 0 1 337 64h328c17.67 0 32 14.33 32 32v576c0 17.67-14.33 32-32 32z m-448-64h416V128H352.38L217 297.23V640z" p-id="7473"></path><path d="M752 704h-87c-17.67 0-32-14.33-32-32s14.33-32 32-32h55V214.4h-55c-17.67 0-32-14.33-32-32s14.33-32 32-32h87c17.67 0 32 14.33 32 32V672c0 17.67-14.33 32-32 32z" p-id="7474"></path><path d="M839 704H665c-17.67 0-32-14.33-32-32s14.33-32 32-32h142V214.4H665c-17.67 0-32-14.33-32-32s14.33-32 32-32h174c17.67 0 32 14.33 32 32V672c0 17.67-14.33 32-32 32zM357 332c-0.86 0-1.73-0.03-2.6-0.11l-172-14a32.018 32.018 0 0 1-26.79-19.21c-4.69-10.86-3-23.43 4.39-32.67l152-190a31.995 31.995 0 0 1 34.09-10.69 31.993 31.993 0 0 1 22.74 27.55l20 204c0.92 9.44-2.38 18.8-9.03 25.56A31.93 31.93 0 0 1 357 332z m-109.41-73.01l73.83 6.01-8.58-87.56-65.25 81.55z" p-id="7475"></path></svg>